<svg xmlns="http://www.w3.org/2000/svg" viewBox="0 0 323.36 56.16"><defs><style>.cls-1{fill:#fff;}.cls-2{fill:#fff;stroke:#fff;}.cls-1{stroke-miterlimit:10;}.cls-2{stroke-width:0.26px;}</style></defs><title>Asset 1cx23za</title><g id="Layer_2" data-name="Layer 2"><g id="Layer_1-2" data-name="Layer 1"><g id="Layer_2-2" data-name="Layer 2"><g id="svg3719"><g id="layer1"><g id="text3723"><path class="cls-1" d="M36.79,42.27c-3.82,9.65-14,13.39-20.52,13.39C5.61,55.67.5,50.92.5,37.95S6.76.51,25.63.51c6.77,0,12,2.66,12,9.65,0,3.82-1.37,6.62-5,6.62a5.18,5.18,0,0,1-4.13-1.87c1.73-.86,3.31-3.89,3.31-6.62,0-2.3-1.15-4.39-4.39-4.39C19.5,3.89,12.5,22.83,12.5,37.51c0,6.63,1.73,11.23,8.64,11.23a17.46,17.46,0,0,0,14-7.2Z"/><path class="cls-1" d="M62.21,41.7C63,46.38,63.87,48,66.39,48a6.4,6.4,0,0,0,2.66-.45c-.36,5.26-4.54,7.42-8.5,7.42-4.25,0-7.06-3.74-8.5-12.53L42.12,54.51H36.93L51.5,38.1,50.35,30c-.72-4.82-1.44-6-2.74-6C44.8,24,40.48,29.73,38,41.61H35c2.23-10.66,7.34-23.47,17-23.47,5.76,0,7.13,4.9,7.78,8.57L60.5,32c3.82-4.39,5.9-7.49,6-10.15a8,8,0,0,1-1.22.14c-2.52,0-3.38-1.8-3.38-4,0-2.45,2.3-3.53,4.9-3.53s4,3.46,4,6.55c0,4.46-3.17,8.21-9.65,15.27Z"/><path class="cls-1" d="M137.95.65,126.5,54.51h-8.71l-6.12-37.66-8,37.66H93.31L103.68,5.62c-6.26,2.59-10,8.06-10,15.7,0,3.67.94,4.25,1,4.9-5,0-7.7-1.8-7.7-7C87,11,95,.5,107.36.5c2.16,0,4.61,0,6.7,1l5.69,38.16,7.85-39Z"/><path class="cls-1" d="M149.5,48.9c5.69,0,9.15-3.17,12.75-7.27h2.45c-4.1,6.62-10.23,13.32-19.8,13.32-6.77,0-11.23-3.31-11.23-11.45s4.68-25.63,19.44-25.63c6.41,0,7.92,3.31,7.92,6.91,0,8.28-7.92,14.69-16.56,15.19-.07,1-.14,2-.14,2.88C144.36,47.75,146.08,48.9,149.5,48.9Zm4.18-27.22c-3.67,0-7.2,7.7-8.64,14.83,5.54-.36,10.44-5.9,10.44-11.88,0-1.8-.4-2.95-1.76-2.95Z"/><path class="cls-1" d="M180,7.14l-2.5,11.37h4.32l-.58,2.88h-4.32L172.31,43a10,10,0,0,0-.29,2.3c0,2,.94,2.66,3,2.66,2.81,0,5.4-2.74,6.48-6.34h3c-4.1,11.74-11.23,13.32-15.12,13.32-4.32,0-7.7-2.59-7.7-8.64a23.63,23.63,0,0,1,.58-4.68l4.32-20.23H164.2l.6-2.87h2.38l2.16-9.94Z"/><path class="cls-1" d="M196.77,18.51,191.59,43a7.72,7.72,0,0,0-.22,1.8c0,1.66.5,3.17,2.16,3.17,2.81,0,4.68-2.74,5.76-6.34l4.9-23.11h10.37L209.38,43a13.79,13.79,0,0,0-.36,2.59A2.15,2.15,0,0,0,211.5,48C218.56,48,224,31.83,224,24c-.22.5-1.73.72-2.3.72-1.73,0-2.59-2.09-2.59-3.67,0-2.23,1.44-3.89,4.46-3.89,3.46,0,4.54,3.1,4.54,6.26,0,11.52-5.83,31.61-20.52,31.61-4.68,0-7.78-2-8.64-6-3.53,5.19-7.34,6-10.22,6-4.32,0-7.71-2.59-7.71-8.64a23.66,23.66,0,0,1,.58-4.68l4.84-23.16Z"/><path class="cls-1" d="M257,29.38a1.69,1.69,0,0,0,.79.14c3.31,0,8-2.16,11.09-4.32l.65,1.94c-2.74,3-7.49,5.11-12.74,6-1.15,13.32-8.35,21.67-17.21,21.67-6.7,0-11.52-3.17-11.52-11.38s4.9-25.56,19.73-25.56C254,17.86,257,21.82,257,29.38Zm-6.19,4c-1.51-.36-1.94-1.58-1.94-3a4,4,0,0,1,2.23-3.89c-.14-3-.86-4.18-2.74-4.18-5.11,0-9.58,13.18-9.58,20.23,0,4.75.94,5.83,3.67,5.83,3.53,0,7.2-6.53,8.35-15Z"/><path class="cls-1" d="M276,18.51,275,23c2.52-2.16,5.26-4.46,8.71-4.46,3.24,0,5,2.66,5,5.4A5,5,0,0,1,284,29.17h-.51c-4,0-2-4.75-4.18-4.75s-3.42,1.09-5.22,2.73l-5.76,27.36H258l7.63-36Z"/><path class="cls-1" d="M321.76,18.51l-14.4,10a13.39,13.39,0,0,1,2.38-.29c5.33,0,7.92,3.82,7.92,8.42a12.17,12.17,0,0,1-.29,2.74l-.79,3.6a11.89,11.89,0,0,0-.36,2.3c0,1.44.58,2.66,2.81,2.66a4.68,4.68,0,0,0,2.47-.43c-.36,5.11-4.83,7.42-6.7,7.42-5.9,0-9.07-3-9.07-8.21a18.07,18.07,0,0,1,.43-3.74l.58-2.81A12.09,12.09,0,0,0,307,37.5c0-2.09-.72-3.46-2.59-3.46-1.66,0-3.31,1-5.33,2.66l-3.7,17.81H285l10.46-49,10.64-1.4-5.4,25.35,13.89-11Z"/></g><path id="path4784" class="cls-2" d="M35.5,41.17c-.08.16-.16.32-.23.49l-.09.23a1.79,1.79,0,0,1-.13.22,5.52,5.52,0,0,1-.33.54l-.19.3-.18.26-.2.33c-.4.61,0-.06-.31.48a2.94,2.94,0,0,1-.2.33l-.06.1-.08.06h0v0h0"/><path id="path4808" class="cls-2" d="M37.61,40.64v.28a.56.56,0,0,1,0,.09v.11a1.38,1.38,0,0,1-.06.23l0,.16-.06.13-.08.13-.06.12-.08.12-.07.11-.06.08,0,.08-.08.08-.08.1a.82.82,0,0,1-.16.19l-.08.07-.15.15-.08.08-.07.07,0,0-.07,0h-.15l-.08.06h0"/><path id="path4818" class="cls-2" d="M37,41.1a.36.36,0,0,1,0,.16v.11a2.47,2.47,0,0,1-.13.33l-.15.32c-.05.11-.14.24-.21.36l-.2.37-.2.36-.22.4-.13.25c-.35.6,0,0-.26.47l-.15.27-.06.12a.2.2,0,0,1-.08.19V45h0v0h0"/><path id="path4820" class="cls-2" d="M37.73,41l-2.15,1.31"/><path id="path4822" class="cls-2" d="M35.62,41.27a1.06,1.06,0,0,1-.08.31v.19h0"/><path id="path4824" class="cls-2" d="M36.33,40.89l-.53,1"/><path id="path4852" class="cls-2" d="M37.61,40.64a1.62,1.62,0,0,0-.13.23c0,.13-.08.28-.12.42l-.08.3a1.27,1.27,0,0,1-.1.37,4.21,4.21,0,0,1-.17.39c-.06.13-.11.27-.17.4a11.37,11.37,0,0,1-.74,1.32c-.12.18-.24.35-.37.52s-.73,1-1,1.31-.29.27-.42.42-.3.38-.47.55-.22.2-.33.3a4.3,4.3,0,0,1-.52.45l-.17.15-.12.07-.17.08"/><path class="cls-1" d="M37.93,41.64s-2.24,4.19-4,4a31.7,31.7,0,0,1,1-4.09"/></g></g></g></g></g></svg>
